<svg width="40" height="40" viewBox="0 0 40 40" fill="none" xmlns="http://www.w3.org/2000/svg">
<path d="M35.5458 18.875C34.0458 18.6213 32.4833 18.455 31.2133 18.41L30.9883 18.4025C31.0408 18.29 31.0795 18.215 31.092 18.2025C31.1195 18.18 31.142 18.085 31.1445 17.9925C31.1445 17.9425 31.167 17.775 31.202 17.555C31.547 17.5675 32.002 17.5775 32.502 17.58C34.422 17.5963 36.432 17.7513 37.8108 17.995C38.632 18.14 38.9033 18.135 38.2983 17.9875C37.6833 17.8375 35.8633 17.62 34.4133 17.525C33.35 17.461 32.2847 17.4352 31.2195 17.4475C31.2445 17.305 31.2695 17.1475 31.2995 16.985C31.4145 16.355 31.4533 15.7225 31.4558 14.4638C31.4583 12.5138 31.3533 11.9763 30.7183 10.6838C30.4784 10.1858 30.1737 9.72178 29.812 9.30378C30.1208 8.39128 30.112 6.98128 29.7933 5.74378C29.5308 4.72878 29.437 4.66378 28.5183 4.85878C27.737 5.02503 27.112 5.25128 26.3108 5.65503C25.9308 5.84628 25.4083 6.14253 25.0295 6.37753C24.042 6.03128 23.0208 5.80253 21.9295 5.67753C20.8258 5.55253 18.117 5.62253 17.1545 5.80003C16.217 5.97503 15.3695 6.18753 14.6045 6.43753C14.2208 6.20253 13.667 5.88378 13.2695 5.68378C12.4645 5.27878 11.8395 5.05378 11.057 4.88753C10.1395 4.69128 10.0445 4.75753 9.78204 5.77253C9.45704 7.02628 9.45454 8.46003 9.77579 9.37003C9.81329 9.47378 9.83579 9.54753 9.84454 9.60503C8.54204 11.245 8.11704 13.08 8.39954 15.6425C8.47454 16.3088 8.58704 16.9213 8.74704 17.4825C7.91579 17.4775 6.73454 17.5075 5.87954 17.5625C4.42704 17.6588 2.60704 17.875 1.99204 18.025C1.38829 18.1713 1.65704 18.175 2.47954 18.0325C3.85829 17.79 5.86954 17.6325 7.78954 17.62C8.15204 17.6175 8.48954 17.61 8.78204 17.6025C8.86954 17.8988 8.96954 18.1813 9.08204 18.45H9.07579C7.80704 18.495 6.24579 18.6625 4.74454 18.9125C3.61954 19.1025 1.95704 19.48 1.76204 19.5875C1.55704 19.7025 1.72454 19.6775 2.59579 19.4563C4.18704 19.0538 6.25579 18.7438 8.81829 18.5313L9.10579 18.5063C9.65579 19.7813 10.502 20.7563 11.6995 21.5188C12.432 21.9838 13.6058 22.4625 14.197 22.5375C14.3595 22.5575 14.832 22.655 15.247 22.7525C15.6633 22.85 16.477 22.9963 17.0545 23.08H17.067L17.037 23.1C16.337 23.4625 15.882 24.03 15.5745 24.9213C15.437 24.9625 15.267 25.0188 15.082 25.0838C14.4195 25.3088 14.1633 25.3538 13.4945 25.3588C12.7983 25.3638 12.632 25.3338 12.2195 25.1388C11.5799 24.8243 11.0444 24.3321 10.677 23.7213C10.052 22.6888 8.96829 21.9588 8.06454 21.9588C7.29454 21.9588 7.14829 22.2713 7.70579 22.7275C8.54579 23.415 9.17329 24.115 9.43079 24.65L9.92704 25.68C10.0645 25.9638 10.3545 26.3488 10.632 26.615C11.2845 27.2375 11.9145 27.535 12.8545 27.675C13.4845 27.7675 13.6395 27.7675 14.3833 27.6725C14.742 27.6288 15.0458 27.5775 15.3158 27.5138V28.5813C15.3158 30.7888 15.2908 31.4988 15.2033 31.7063C15.037 32.1013 14.6658 32.5063 14.307 32.69C13.9483 32.8738 13.837 33.075 13.9883 33.26C14.0733 33.36 14.2345 33.3775 14.7758 33.3425C15.8033 33.28 16.5295 32.8988 16.9008 32.23C17.0183 32.0138 17.0458 31.58 17.0833 29.33C17.1233 26.89 17.1408 26.655 17.2995 26.305C17.3945 26.0988 17.5333 25.8738 17.612 25.8125C17.7408 25.705 17.7495 25.9175 17.7495 28.8375C17.7495 32.06 17.7158 32.45 17.3933 33.0688C17.3208 33.21 17.1833 33.3938 17.087 33.4813C16.9183 33.635 16.847 34.0288 16.9645 34.1475C17.1583 34.34 18.1295 34.0375 18.6595 33.62C19.562 32.905 19.6695 32.3138 19.677 28.045L19.6808 25.5388L19.9558 25.5638L20.2283 25.5888L20.2733 28.8638C20.3233 32.5538 20.3308 32.6075 20.9583 33.32C21.3145 33.7225 21.6733 33.945 22.2583 34.12C23.0383 34.3538 23.2733 33.9913 22.7483 33.3625C22.177 32.6775 22.1483 32.4163 22.1808 28.3688C22.202 25.7738 22.202 25.7738 22.3683 25.925C22.722 26.245 22.7895 26.77 22.7895 29.2038C22.7895 32.2263 22.877 32.5138 23.9433 33.0413C24.4433 33.285 24.5808 33.3163 25.2208 33.3163C25.9008 33.32 25.942 33.31 25.967 33.1325C25.9883 32.9888 25.9045 32.8913 25.587 32.6975C25.1951 32.4662 24.8856 32.1177 24.702 31.7013C24.6333 31.5438 24.587 30.5038 24.5558 28.3638C24.5108 25.3713 24.5008 25.235 24.3145 24.7663C24.0645 24.1363 23.6795 23.6388 23.1933 23.3088C23.0683 23.2263 22.9408 23.1588 22.777 23.1063C22.977 23.0863 23.1733 23.065 23.362 23.0375C25.327 22.775 26.3658 22.5575 27.1995 22.235C28.962 21.5563 30.1558 20.4288 30.802 18.83C30.8595 18.6875 30.917 18.5525 30.9645 18.4425L31.4645 18.485C34.027 18.7013 36.0958 19.01 37.687 19.4138C38.5595 19.6363 38.7245 19.6638 38.522 19.5463C38.332 19.44 36.6695 19.0638 35.5445 18.875H35.5458ZM28.0283 18.835C27.737 19.475 26.9245 20.2975 26.2683 20.62C25.6208 20.94 24.6058 21.1825 23.4558 21.3C22.6683 21.38 18.2845 21.4038 17.5608 21.3325C15.1645 21.0975 13.8233 20.6363 12.832 19.7125C11.8945 18.835 11.457 17.6438 11.532 16.1775C11.582 15.26 11.8033 14.6838 12.382 13.9838C12.907 13.3463 13.462 12.9525 14.1145 12.7525C14.662 12.585 16.3395 12.57 18.592 12.715C19.5883 12.7775 20.412 12.7775 21.407 12.715C23.7645 12.565 25.3383 12.5825 25.9195 12.7625C26.832 13.045 27.6658 13.805 28.1658 14.8175C28.3908 15.27 28.4358 15.4625 28.4683 16.1613C28.5133 17.1238 28.347 18.145 28.0308 18.8338L28.0283 18.835ZM16.1408 14.7025C14.7995 14.4675 14.0333 16.765 15.062 17.9363C15.5495 18.4913 15.9833 18.5825 16.5245 18.245C17.0283 17.9325 17.2995 17.345 17.2995 16.585C17.2995 15.57 16.8395 14.825 16.1395 14.7L16.1408 14.7025ZM24.282 14.84C22.9408 14.605 22.1733 16.8988 23.202 18.0725C23.6933 18.6288 24.127 18.7225 24.6695 18.3813C25.1695 18.0688 25.4445 17.4813 25.4445 16.7213C25.4445 15.7113 24.982 14.9638 24.282 14.84ZM20.6745 19.355C20.6445 19.4475 20.5045 19.585 20.362 19.6588C20.0058 19.8425 19.7495 19.7788 19.3708 19.4338C19.137 19.2238 19.0308 19.1125 18.9583 19.3338C18.8933 19.5388 19.3083 19.95 19.6308 20.0763C19.9258 20.195 20.137 20.1988 20.4558 20.0638C20.7745 19.9325 21.052 19.5763 21.052 19.345C21.052 19.13 20.7433 19.14 20.6733 19.3575L20.6745 19.355ZM20.277 18.6363C20.4808 18.455 20.527 18.0863 20.332 17.8888C20.137 17.6913 19.7408 17.7225 19.5858 17.9425C19.4045 18.2 19.5008 18.3963 19.6295 18.605C19.8295 18.76 20.0983 18.7925 20.2758 18.635L20.277 18.6363Z" fill="#8B8887"/>
</svg>
